<?xml version="1.0" encoding="utf-8"?>
<!-- Generator: Adobe Illustrator 27.5.0, SVG Export Plug-In . SVG Version: 6.00 Build 0)  -->
<svg version="1.1" xmlns="http://www.w3.org/2000/svg" xmlns:xlink="http://www.w3.org/1999/xlink" x="0px" y="0px"
	 viewBox="0 0 650 500" style="enable-background:new 0 0 650 500;" xml:space="preserve">
<g id="BACKGROUND">
	<rect style="fill:#A8DDE1;" width="650" height="500"/>
	<linearGradient id="SVGID_1_" gradientUnits="userSpaceOnUse" x1="372.5207" y1="113.9642" x2="267.14" y2="413.9757">
		<stop  offset="0" style="stop-color:#FFFFFF"/>
		<stop  offset="0.148" style="stop-color:#EEF8F9"/>
		<stop  offset="0.5174" style="stop-color:#C8E9EC"/>
		<stop  offset="0.8145" style="stop-color:#B1E0E4"/>
		<stop  offset="1" style="stop-color:#A8DDE1"/>
	</linearGradient>
	<path style="fill:url(#SVGID_1_);" d="M396.368,358.361c-9.669-1.808-49.393-14.727-119.881,3.615
		c-70.488,18.341-128.608,51.958-199.014,9.88C7.067,329.777,0.422,194.201,62.349,130.263
		c61.927-63.937,119.906-38.427,220.562,20.101c100.657,58.529,163.957-2.369,279.015,36.369
		c115.058,38.738,56.037,186.558-6.391,186.845C493.107,373.865,497.487,377.267,396.368,358.361z"/>
	
		<linearGradient id="SVGID_00000141446383761939857590000002734576570576804251_" gradientUnits="userSpaceOnUse" x1="574.1158" y1="72.9892" x2="547.2898" y2="149.3609">
		<stop  offset="0" style="stop-color:#FFFFFF"/>
		<stop  offset="0.148" style="stop-color:#EEF8F9"/>
		<stop  offset="0.5174" style="stop-color:#C8E9EC"/>
		<stop  offset="0.8145" style="stop-color:#B1E0E4"/>
		<stop  offset="1" style="stop-color:#A8DDE1"/>
	</linearGradient>
	<path style="fill:url(#SVGID_00000141446383761939857590000002734576570576804251_);" d="M570.719,159.817
		c-9.36,0.97-18.789-0.966-27.021-5.039c-15.805-7.821-40.683-26.108-24.005-59.149c23.475-46.507,80.547-18.116,81.623,11.495
		C602.242,132.57,598.486,156.94,570.719,159.817z"/>
	
		<linearGradient id="SVGID_00000028291516595319049960000011711296156455888316_" gradientUnits="userSpaceOnUse" x1="504.3389" y1="32.0657" x2="494.1877" y2="60.9655">
		<stop  offset="0" style="stop-color:#FFFFFF"/>
		<stop  offset="0.148" style="stop-color:#EEF8F9"/>
		<stop  offset="0.5174" style="stop-color:#C8E9EC"/>
		<stop  offset="0.8145" style="stop-color:#B1E0E4"/>
		<stop  offset="1" style="stop-color:#A8DDE1"/>
	</linearGradient>
	<path style="fill:url(#SVGID_00000028291516595319049960000011711296156455888316_);" d="M510.679,37.58
		c0,0-11.917-14.787-25.152,1.471c-13.236,16.258,8.014,28.739,18.041,24.32S520.951,48.441,510.679,37.58z"/>
	
		<linearGradient id="SVGID_00000104664957796681269140000016947463029277115019_" gradientUnits="userSpaceOnUse" x1="34.854" y1="101.6282" x2="26.6053" y2="125.1116" gradientTransform="matrix(0.7665 -0.6422 0.6422 0.7665 -31.999 54.0176)">
		<stop  offset="0" style="stop-color:#FFFFFF"/>
		<stop  offset="0.148" style="stop-color:#EEF8F9"/>
		<stop  offset="0.5174" style="stop-color:#C8E9EC"/>
		<stop  offset="0.8145" style="stop-color:#B1E0E4"/>
		<stop  offset="1" style="stop-color:#A8DDE1"/>
	</linearGradient>
	<path style="fill:url(#SVGID_00000104664957796681269140000016947463029277115019_);" d="M66.81,109.659
		c0,0-15.139-2.992-14.899,14.041c0.24,17.033,19.988,13.718,23.927,5.734C79.778,121.45,78.874,111.064,66.81,109.659z"/>
</g>
<g id="OBJECTS">
	<ellipse style="fill:#83CACC;" cx="243.409" cy="446.675" rx="77.253" ry="14.814"/>
	<ellipse style="fill:#83CACC;" cx="131.186" cy="455.463" rx="99.116" ry="14.4"/>
	<ellipse style="fill:#83CACC;" cx="441.589" cy="425.184" rx="135.91" ry="14.474"/>
	<g>
		<g>
			<g>
				<path style="fill:#FFF4F3;" d="M456.192,341.963l-2.071,9.6c0,0-15.053,14.464-19.903,22.941
					c-4.851,8.477-1.324,11.959,11.454,7.378c12.779-4.58,13.213-7.584,18.956-10.299c5.743-2.715,11.84-6.979,10.795-12.632
					c0,0,3.407-4.783-6.695-18.684C464.309,334.186,456.192,341.963,456.192,341.963z"/>
				<path style="fill:#FFD950;" d="M456.192,341.963l-1.617,7.495c0.435-0.474,1.212-0.812,2.597-0.702
					c3.835,0.305,6.857,0.057,6.656,3.194c-0.157,2.452,6.83-1.881,10.172-2.918c-1.507-4.649-6.333-11.473-5.657-14.251
					C470.12,327.478,456.192,341.963,456.192,341.963z"/>
				<path style="fill:#556CB2;" d="M470.705,363.754c-1.467,1.896-9.839,5.423-15.015,9.294c-5.176,3.871-8.444,2.623-8.444,2.623
					c-5.614-7.815-10.223-4.133-11.014-4.258c-0.777,1.087-1.464,2.129-2.015,3.091c-4.851,8.477-1.324,11.959,11.454,7.378
					c12.779-4.58,14.09-7.251,19.711-10.212c7.328-3.861,12.086-8.746,11.042-14.4c0,0-0.487-1.58-0.688-3.204
					C470.655,355.345,472.08,361.978,470.705,363.754z"/>
				<path style="fill:#556CB2;" d="M449.684,368.022c0.222,0.716-0.178,1.476-0.893,1.698s-1.476-0.178-1.698-0.893
					c-0.222-0.716,0.178-1.476,0.893-1.698C448.702,366.906,449.462,367.306,449.684,368.022z"/>
				<path style="fill:#556CB2;" d="M453.645,364.36c0.222,0.716-0.178,1.476-0.893,1.698c-0.716,0.222-1.476-0.178-1.698-0.893
					c-0.222-0.716,0.178-1.476,0.893-1.698C452.662,363.245,453.422,363.645,453.645,364.36z"/>
				<path style="fill:#556CB2;" d="M457.164,360.425c0.222,0.716-0.178,1.476-0.893,1.698c-0.716,0.222-1.476-0.178-1.698-0.893
					c-0.222-0.716,0.178-1.476,0.893-1.698C456.181,359.31,456.941,359.71,457.164,360.425z"/>
				<path style="fill:#556CB2;" d="M461.236,356.319c0.222,0.716-0.178,1.476-0.893,1.698c-0.716,0.222-1.476-0.178-1.698-0.893
					c-0.222-0.716,0.178-1.476,0.893-1.698C460.253,355.203,461.013,355.603,461.236,356.319z"/>
			</g>
			<path style="fill:#451F14;" d="M493.517,165.413c-0.469-1.448-55.503,17.478-74.075,44.867
				c-18.572,27.389-14.856,40.212-5.031,68.226c9.825,28.013,24.065,57.893,32.808,62.464l4.655,2.16l1.751,4.986l19.629-8.69
				l-2.367-6.878c0,0,7.657-5.211,2.027-19.376c-5.63-14.165-18.721-54.5-18.517-58.786c0.205-4.287,33.284-19.213,46.306-27.91
				C513.724,217.779,493.517,165.413,493.517,165.413z"/>
		</g>
		<g>
			<g>
				<path style="fill:#FFF4F3;" d="M370.384,347.883l-4.584,8.815c0,0-18.552,10.096-25.55,17.074
					c-6.997,6.978-4.486,11.317,9.208,10.259c13.694-1.058,14.92-3.873,21.25-4.989c6.33-1.116,13.418-3.649,13.908-9.445
					c0,0,0.615-9.068,4.299-15.722C392.6,347.221,370.384,347.883,370.384,347.883z"/>
				<path style="fill:#FFD950;" d="M370.384,347.883l-3.579,6.883c0.551-0.346,1.399-0.469,2.722,0.009
					c3.661,1.322,6.677,1.887,5.643,4.894c-0.808,2.351,7.202,2.332,10.74,2.212c0.648-2.597,1.605-5.476,3.006-8.007
					C392.6,347.221,370.384,347.883,370.384,347.883z"/>
				<path style="fill:#556CB2;" d="M378.729,373.025c-1.938,1.458-11.05,2.664-17.135,5.06c-6.085,2.396-8.941,0.305-8.941,0.305
					c-3.392-9.126-8.873-6.763-9.611-7.097c-1.048,0.853-1.997,1.687-2.792,2.479c-6.997,6.978-4.486,11.317,9.208,10.259
					c13.694-1.058,14.92-3.873,21.25-4.989c6.33-1.116,13.418-3.649,13.908-9.445c0,0,0.071-1.045,0.308-2.683
					C379.624,366.805,380.545,371.658,378.729,373.025z"/>
				<path style="fill:#556CB2;" d="M357.075,371.576c0.026,0.758-0.568,1.393-1.325,1.419c-0.758,0.026-1.393-0.568-1.419-1.325
					c-0.026-0.758,0.568-1.393,1.325-1.419C356.414,370.225,357.049,370.818,357.075,371.576z"/>
				<path style="fill:#556CB2;" d="M361.917,369.06c0.026,0.758-0.568,1.393-1.325,1.419c-0.758,0.026-1.393-0.568-1.419-1.325
					c-0.026-0.758,0.567-1.393,1.325-1.419C361.256,367.709,361.891,368.302,361.917,369.06z"/>
				<path style="fill:#556CB2;" d="M366.402,366.16c0.026,0.758-0.568,1.393-1.325,1.419c-0.758,0.026-1.393-0.568-1.419-1.325
					c-0.026-0.758,0.568-1.393,1.325-1.419C365.741,364.809,366.376,365.402,366.402,366.16z"/>
				<path style="fill:#556CB2;" d="M371.473,363.239c0.026,0.758-0.568,1.393-1.325,1.419c-0.758,0.026-1.393-0.568-1.419-1.325
					c-0.026-0.758,0.568-1.393,1.325-1.419C370.812,361.888,371.447,362.482,371.473,363.239z"/>
			</g>
			<path style="fill:#451F14;" d="M408.355,170.198c0,0-18.994,84.607-22.988,106.093c-3.995,21.486-25.007,50.997-17.24,67.67
				l-1.198,6.897c0,0,14.753,10.439,24.067,7.997l2.902-6.458c0,0,5.071,2.368,12.893-10.603c7.822-12.97,17.835-64.306,24.547-79.9
				c6.713-15.594,23.663-78.998,23.663-78.998L408.355,170.198z"/>
		</g>
		<g>
			<g>
				<path style="fill:#8B3657;" d="M410.817,98.49c0,0-18.987,45.899-25.209,57.126c-6.222,11.227-0.162,17.094-0.162,17.094
					s42.415,16.184,77.775,18.696c35.36,2.512,27.673-105.533,27.673-105.533L410.817,98.49z"/>
				<path style="fill:#8B3657;" d="M400.86,82.062c-2.612-0.979,24.751-30.56,42.243-28.712
					c17.492,1.848,24.783-2.191,43.882,29.787c19.1,31.978-81.714,26.498-82.842,25.195
					C403.015,107.028,403.647,83.107,400.86,82.062z"/>
				<path style="fill:#772848;" d="M417.991,87.297c0,0,1.403-5.522,3.344-9.489c0,0,4.917,4.08,14.077,5.901
					c9.16,1.821,28.855,1.084,35.43-8.153l3.988,9.279L417.991,87.297z"/>
				<g>
					<path style="fill:#FFD950;" d="M479.148,197.488l32.268-2.145l-6.121-92.101c-0.795-11.958-11.133-21.008-23.091-20.214
						l-93.953,6.244l2.439,36.708c12.176-0.809,22.702,8.405,23.512,20.581c0.809,12.176-8.405,22.702-20.581,23.511l2.19,32.953
						l39.246-2.608c0.809,12.176,11.336,21.39,23.511,20.581C470.743,220.191,479.957,209.664,479.148,197.488z"/>
					<path style="fill:#EAC242;" d="M456.253,205.176c-2.938-0.39-5.215-2.832-5.412-5.806l-1.05-15.785l-39.245,2.608l-0.32-4.813
						c3.906-2.118,7.444-4.938,10.458-8.381c6.67-7.62,9.974-17.382,9.302-27.487c-0.995-14.982-10.768-27.732-24.331-32.919
						l-0.571-8.586l78.169-5.195c0.401-0.027,0.8-0.014,1.187,0.037c2.753,0.366,4.885,2.653,5.07,5.44l5.072,76.318l-32.268,2.144
						l1.049,15.785c0.15,2.257-0.9,3.819-1.539,4.549c-0.64,0.73-2.049,1.978-4.305,2.128
						C457.09,205.244,456.664,205.23,456.253,205.176z"/>
				</g>
				<path style="fill:#C46B43;" d="M431.914,147.745c0,0,0.821,0.083,5.399,4.034c4.577,3.951,2.978,2.543,6.769,5.252
					c3.791,2.709,3.78,5.516-2.404,3.241c-3.993-1.469-3.993-1.469-3.058,1.515c1.226,3.914,6.166,11.996,5.991,13.72
					c-0.175,1.725-4.835-2.234-4.835-2.234s-0.775,1.913-3.902,0.018c0,0-0.529,1.938-3.911,0.1c0,0-0.7,1.174-3.047-0.227
					s-3.165-3.973-4.892-7.385c-1.728-3.412-1.213-6.845-7.926-15.909c-6.713-9.064-0.022-16.931,0.372-16.725
					C416.863,133.353,431.914,147.745,431.914,147.745z"/>
				<path style="fill:#8B3657;" d="M434.849,51.061c0,0-24.081,3.036-36.536,14.453c-12.454,11.417-10.589,43.054-1.482,58.338
					c9.106,15.284,23.801,40.436,23.801,40.436l17.336-14.079c0,0-10.979-33.062-17.62-49.088
					C413.706,85.094,434.849,51.061,434.849,51.061z"/>
				<path style="fill:#C46B43;" d="M463.53,153.934c-0.483,1.115-1.101,2.152-1.856,3.086c-1.185,1.465-3.293,4.17-7.564,6.611
					c-5.904,3.374-7.183,5.51-3.396,4.766s5.745-1.867,4.886,0.115c-0.858,1.981-3.543,7.199-4.175,9.518
					c-0.632,2.319,0.895,3.67,3.587-0.9s2.611-1.497,2.06,1.366c-0.551,2.863-1.158,7.775,0.883,5.99l1.76-2.485
					c0,0-0.106,1.683,0.101,2.488c0.207,0.805,2.48-1.199,3.666-3.97c1.186-2.771,3.005-5.45,2.933-2.936
					c-0.072,2.514-0.499,5.452,0.645,3.985c1.143-1.467,2.594-8.45,3.4-10.794c0.806-2.344,1.658-6.179,5.923-12.093
					s-6.846-11.603-8.799-11.037C466.28,148.019,464.543,151.593,463.53,153.934z"/>
				<path style="fill:#8B3657;" d="M460.594,55.198c0,0,25.727,1.128,38.395,12.307c12.668,11.18,9.808,44.298,0.992,59.752
					c-8.816,15.454-23.032,40.879-23.032,40.879l-17.599-13.749c0,0,10.352-33.264,16.689-49.413
					C482.376,88.826,460.594,55.198,460.594,55.198z"/>
				<path style="fill:#772848;" d="M425.136,62.803c0,0,6.534,17.303,16.564,18.782c10.03,1.479,15.086-2.82,17.553-22.141
					C461.72,40.123,425.136,62.803,425.136,62.803z"/>
				<g>
					<path style="fill:#D87B56;" d="M430.679,45.818c0,0,1.114-6.421,8.26-8.949c7.147-2.527,20.049,7.247,17.54,24.159
						c-2.509,16.912-11.27,20.016-18.536,14.627C430.678,70.266,422.406,58.707,430.679,45.818z"/>
					<path style="fill:#D87B56;" d="M429.757,57.368c0,0-4.074-9.021-9.856-7.018c-5.783,2.002,6.222,16.498,11.224,14.6
						C436.128,63.051,429.757,57.368,429.757,57.368z"/>
					<path style="fill:#D87B56;" d="M453.883,56.364c0,0,2.546-9.565,8.577-8.534c6.032,1.031-3.443,17.293-8.689,16.237
						C448.526,63.011,453.883,56.364,453.883,56.364z"/>
					<path style="fill:#451F14;" d="M458.997,36.437c0,0,0.638-0.14,3.762-1.76c3.124-1.621-6.937-2.963-6.937-2.963
						s0.113-2.232-3.84-7.454s0.41,4.927,0.41,4.927c-5.583-4.768-11.891-5.008-16.392-4.284l0,0c0,0-9.752,0.978-14.382,8.548
						c-4.63,7.569-1.758,6.94-1.758,6.94s-3.176,8.239,3.306,14.252c1.166,1.082,2.328,0.807,3.45-0.364
						c0.81,1.192,1.707,2.354,3.14,3.088c2.315,1.186,5.115-1.542,6.746-3.521c-0.52,1.126,0.678,0.879,0.678,0.879
						c6.944,0.553,12.091-10.247,12.091-10.247c1.246,6.39,2.408,0.61,2.99,3.666c0.368,1.929,1.785,3.458,2.801,4.476
						c0.645,0.646,1.708,0.461,2.175-0.323c1.731-2.906,5.221-4.469,5.221-4.469C463.962,40.186,458.997,36.437,458.997,36.437z"/>
				</g>
			</g>
			<path style="fill:#451F14;" d="M437.701,64.499c0.312,1.095-0.001,2.143-0.699,2.342c-0.698,0.199-1.517-0.527-1.829-1.621
				c-0.312-1.095,0.001-2.143,0.699-2.342S437.388,63.405,437.701,64.499z"/>
			<path style="fill:#451F14;" d="M452.272,63.873c-0.15,1.128-0.855,1.965-1.574,1.87c-0.72-0.096-1.182-1.088-1.032-2.216
				c0.15-1.128,0.855-1.965,1.574-1.87C451.96,61.753,452.422,62.745,452.272,63.873z"/>
			<path style="fill:#C16748;" d="M429.086,65.007c0.292,0.037-1.229-3.189-1.799-5.917c0,0-2.46,2.201-6.307-0.613
				C420.981,58.478,424.646,64.438,429.086,65.007z"/>
			<path style="fill:#C16748;" d="M456.018,63.657c0,0,0.531-2.455,0.755-5.687c0,0,3.932-0.498,6.987-4.315
				C463.76,53.655,460.923,61.335,456.018,63.657z"/>
			<path style="fill:#451F14;" d="M438.48,60.296c0.13,0.554-1.019,1.298-2.567,1.662c-1.548,0.364-2.909,0.21-3.039-0.344
				c-0.13-0.554,1.019-1.298,2.567-1.662C436.989,59.588,438.35,59.742,438.48,60.296z"/>
			<path style="fill:#451F14;" d="M454.309,60.419c-0.075,0.564-1.414,0.852-2.99,0.642c-1.576-0.209-2.794-0.836-2.719-1.4
				c0.075-0.564,1.413-0.852,2.99-0.642C453.167,59.228,454.384,59.855,454.309,60.419z"/>
			<path style="fill:none;stroke:#451F14;stroke-linecap:round;stroke-miterlimit:10;" d="M440.291,72.227
				c0,0,4.63,3.579,9.263-1.13"/>
			<path style="fill:none;stroke:#451F14;stroke-linecap:round;stroke-miterlimit:10;" d="M426.511,61.01
				c-0.578-0.955-1.673-2.857-4.383-4.864"/>
			<path style="fill:none;stroke:#451F14;stroke-linecap:round;stroke-miterlimit:10;" d="M457.467,59.686
				c0,0,1.24-4.731,4.176-6.312"/>
		</g>
		<g>
			<path style="fill:#FFFFFF;" d="M462.809,179.666c-1.473-0.056,20.774,12.283,22.286,7.258
				C486.608,181.898,472.185,180.023,462.809,179.666z"/>
			<path style="fill:#FFFFFF;" d="M452.216,185.69c-1.25-0.782,11.909,20.991,15.721,17.384
				C471.75,199.467,460.172,190.664,452.216,185.69z"/>
			<path style="fill:#FFFFFF;" d="M440.051,185.244c-0.216-1.458-8.251,22.68-3.033,23.241
				C442.237,209.048,441.426,194.526,440.051,185.244z"/>
			<path style="fill:#FFFFFF;" d="M429.712,183.989c1.028-1.056-23.036,7.196-20.318,11.685
				C412.113,200.164,423.167,190.712,429.712,183.989z"/>
			<path style="fill:#FFFFFF;" d="M423.007,174.601c1.461-0.2-22.588-8.498-23.207-3.287
				C399.181,176.527,413.711,175.875,423.007,174.601z"/>
		</g>
	</g>
	<g>
		<path style="fill:#405896;" d="M266.422,416.89c0,0-0.538,4.3-0.672,7.256c-0.134,2.956-4.52,8.062,2.107,13.572
			c6.627,5.509,7.702,4.3,15.227,10.212c7.525,5.913,10.481,5.133,17.872,4.381c7.39-0.753,6.315-3.306-2.553-14.19
			c-8.869-10.884-14.244-10.212-14.916-20.559C282.816,407.215,266.422,416.89,266.422,416.89z"/>
		<path style="fill:#405896;" d="M204.794,417.541c0,0-1.231,6.424-3.947,8.498c-2.716,2.074-20.591,6.534-25.526,12.442
			c-4.935,5.907,32.141,0.829,40.228,1.037c8.087,0.207,10.358,1.084,10.052-7.338c-0.306-8.422,0-18.375,0-18.375L204.794,417.541z
			"/>
		<path style="fill:#B3B200;" d="M243.409,269.049c0.99,0.824,11.242-5.202,11.242-5.202s-8.442,124.793,5.745,145.418
			c0,0,2.582,1.728,5.085,2.268l-0.504,6.809h22.485l-1.332-6.809c0,0,5.105-5.538,6.095-21.847
			c0.99-16.309-7.32-152.851-14.212-171.46C271.122,199.618,243.409,269.049,243.409,269.049z"/>
		<path style="fill:#B3B200;" d="M221.906,207.937c0,0-6.861,6.479-12.14,36.007c-5.279,29.528-6.999,103.515-8.79,115.835
			c-1.791,12.32-8.389,44.983,4.808,51.912l-0.99,5.849c0,0,12.867,6.179,24.085,0v-7.84c0,0,10.228-12.209,16.167-62.847
			c5.939-50.638,8.418-102.144,8.418-102.144L221.906,207.937z"/>
		<path style="fill:#FEFEFE;" d="M269.026,109.624c0,0,10.724,91.322,9.644,106.04c-1.08,14.718-25.242,20.441-42.676,12.176
			c-17.435-8.264-13.766-83.549-13.766-83.549L269.026,109.624z"/>
		<g>
			<path style="fill:#F26748;" d="M393.271,284.842c-12.091,1.645-23.227-6.823-24.872-18.914
				c-1.645-12.091,6.823-23.227,18.914-24.872l-5.156-37.895l-2.376,0.323l-38.039,5.176c-1.645-12.091-12.781-20.559-24.872-18.914
				c-12.091,1.645-20.559,12.781-18.914,24.872l-32.978,4.487l12.445,91.462c1.616,11.875,12.553,20.192,24.428,18.577
				l93.301-12.695l2.376-0.323L393.271,284.842z"/>
			<path style="fill:#DD553E;" d="M297.872,313.432c-2.089-0.378-4.376-2.071-4.774-4.999l-10.312-75.788l32.978-4.487
				l-2.133-15.675c-0.467-3.429,1.943-6.598,5.372-7.064c0.666-0.09,1.329-0.078,1.969,0.038c2.23,0.404,4.669,2.21,5.094,5.333
				l2.133,15.676l40.415-5.499l1.355,9.949c-3.751,2.382-7.087,5.438-9.856,9.081c-6.131,8.062-8.755,18.027-7.389,28.062
				c2.021,14.859,12.46,26.916,26.54,31.173l0.455,3.348l-80.002,10.885C299.092,313.552,298.471,313.541,297.872,313.432z"/>
		</g>
		<path style="fill:#F66D4D;" d="M220.186,67.036c0,0-3.358-8.031,2.771-13.632c6.129-5.601,9.885-10.549,16.793-11.848
			c6.908-1.299,18.013,0.547,15.018,10.132c0,0,14.235,6.054,9.067,14.398c0,0,10.326,5.808,3.295,15.409
			c-7.031,9.601,7.642,7.722,4.888,12.949c-2.754,5.227-8.756,6.352-12.58,4.572c-3.824-1.78-10.246,4.925-14.749-2.832
			c-4.502-7.757-3.096,5.32-16.857,4.896c-13.761-0.424-7.73-8.16-7.73-8.16s-12.512-6.217-8.173-16.366
			C216.56,65.715,217.765,68.247,220.186,67.036z"/>
		<path style="fill:#FFD09C;" d="M280.335,240.154c0.544,0.274,6.443,3.371,9.982,3.297c3.539-0.074,2.654-0.59,10.617-0.295
			c7.963,0.295,10.175-2.581,8.848-0.074c-1.327,2.507-3.212,4.055-6.288,4.719s-6.467,0.958-0.643,2.802
			c5.825,1.843,6.783,2.507,10.617,4.203c3.834,1.696,6.857,3.539,5.309,4.129c-1.548,0.59-4.94,0-4.94,0s2.212,1.696,0.59,2.212
			c-1.622,0.516-4.129,0-4.129,0l-6.193-0.885c0,0,5.972,2.212,5.972,3.834c0,1.622-5.677,0.369-5.677,0.369
			s1.622,2.433-2.581,1.475c-4.203-0.958-15.754-7.283-19.158-8.692c-3.404-1.409-12.03-6.792-12.03-6.792L280.335,240.154z"/>
		<path style="fill:#FEFEFE;" d="M237.951,94.926l-2.235,15.324c0,0-15.528,4.455-25.026,9.584
			c-9.498,5.129-10.076,11.633-9.597,38.301c0.479,26.667,1.998,65.21,16.436,75.383c14.437,10.173,49.581,27.473,63.638,28.79
			c0,0,3.419-11.418,2.469-28.79c0,0-41.792-20.963-45.971-30.66c-4.179-9.697-3.799-57.758-3.799-57.758l37.613-3.146
			l-22.32-32.287l-0.34-15.964L237.951,94.926z"/>
		<path style="fill:#DAEDED;" d="M266.284,224.177c-1.531-0.878-10.568-4.417-22.122-14.318
			c-11.554-9.902-8.657-18.163-8.657-18.163l36.24,26.487l-6.768,0.921L266.284,224.177z"/>
		<path style="fill:#FFD09C;" d="M215.826,117.186c0,0,36.879,14.332,53.2-7.562l-16.362-0.618l-2.27-16.894l-14.282,3.674
			l-0.213,13.22L215.826,117.186z"/>
		<g>
			<path style="fill:#FFD09C;" d="M227.221,75.799c-0.027-1.229-1.036-10.331,7.966-14.247c9.002-3.916,17.626,0.728,19.685,9.627
				c2.059,8.899-0.658,25.146-6.947,27.952C241.636,101.938,227.758,99.922,227.221,75.799z"/>
			<path style="fill:#FFD09C;" d="M253.74,79.096c0.592-1.138,5.955-10.251,10.911-6.055c4.956,4.196-6.169,16.348-10.276,15.062
				C250.269,86.817,253.74,79.096,253.74,79.096z"/>
			<path style="fill:#FFD09C;" d="M230.085,81.785c0,0-7.625-7.262-12.457-4.881c-4.832,2.382,5.685,16.137,13.777,14.376
				C239.496,89.519,230.085,81.785,230.085,81.785z"/>
			<ellipse style="fill:#451F14;" cx="235.939" cy="80.685" rx="1.255" ry="2.194"/>
			<path style="fill:none;stroke:#451F14;stroke-linecap:round;stroke-miterlimit:10;" d="M246.228,90.98
				c0,0-2.542,1.759-6.532,0.383"/>
			<path style="fill:none;stroke:#451F14;stroke-linecap:round;stroke-miterlimit:10;" d="M219.183,80.678
				c0,0,4.536-0.648,6.988,3.251"/>
			<path style="fill:none;stroke:#451F14;stroke-linecap:round;stroke-miterlimit:10;" d="M256.5,81.18c0,0,1.478-4.337,6.065-4.756
				"/>
			<path style="opacity:0.33;fill:#F36849;" d="M236.647,88.649c0,1.664-1.349,3.012-3.012,3.012s-3.012-1.349-3.012-3.012
				s1.349-3.012,3.012-3.012S236.647,86.986,236.647,88.649z"/>
			<path style="opacity:0.33;fill:#F36849;" d="M253.684,86.914c0,1.664-1.349,3.012-3.012,3.012c-1.664,0-3.012-1.349-3.012-3.012
				c0-1.664,1.349-3.012,3.012-3.012C252.335,83.902,253.684,85.251,253.684,86.914z"/>
			<path style="fill:#451F14;" d="M236.685,75.917c0.108,0.378-0.484,0.878-1.323,1.118c-0.839,0.24-1.606,0.128-1.714-0.25
				c-0.108-0.378,0.484-0.879,1.323-1.118C235.81,75.427,236.577,75.539,236.685,75.917z"/>
			<path style="fill:#451F14;" d="M246.921,79.969c0,1.212,0.562,2.194,1.255,2.194s1.255-0.983,1.255-2.194
				s-0.562-2.194-1.255-2.194S246.921,78.757,246.921,79.969z"/>
			<path style="fill:#451F14;" d="M247.431,75.194c-0.108,0.378,0.484,0.878,1.323,1.118c0.839,0.24,1.606,0.128,1.714-0.25
				c0.108-0.378-0.484-0.878-1.323-1.118C248.306,74.704,247.539,74.816,247.431,75.194z"/>
		</g>
		<path style="fill:#F66D4D;" d="M226.481,66.824c0,0,4.742,7.322,25.124-0.517c0,0,2.782,4.412,3.51,9.496
			c0.728,5.083,2.833-14.769,2.833-14.769s-11.399-6.662-12.771-6.177c-1.372,0.485-10.092,2.132-10.092,2.132
			s-4.617,4.452-5.212,5.091S226.481,66.824,226.481,66.824z"/>
		<path style="fill:#F66D4D;" d="M231.309,66.866c0.056,0.675-1.058,13.908-3.906,12.433c-2.848-1.475-5.175-10.693-5.175-10.693
			L231.309,66.866z"/>
		<path style="fill:#FFB883;" d="M236.075,98.015c0,0,9.373,6.354,14.897-1.594l0.414,3.077c0,0-2.269,15.061-15.393,3.58
			L236.075,98.015z"/>
		<g>
			<path style="fill:#FFFFFF;" d="M322.853,254.439c-0.643,1.326,19.597-14.085,15.603-17.49
				C334.462,233.544,326.948,245.997,322.853,254.439z"/>
			<path style="fill:#FFFFFF;" d="M327.736,261.267c-1.218,0.831,24.007-2.467,22.237-7.408
				C348.202,248.918,335.488,255.982,327.736,261.267z"/>
			<path style="fill:#FFFFFF;" d="M327.776,269.056c-1.422-0.388,17.451,16.671,20.062,12.119
				C350.45,276.622,336.827,271.527,327.776,269.056z"/>
			<path style="fill:#FFFFFF;" d="M322.2,272.638c-0.554-1.366-2.67,23.986,2.534,23.301
				C329.937,295.254,325.725,281.333,322.2,272.638z"/>
			<path style="fill:#FFFFFF;" d="M314.947,270.006c0.404-1.418-16.861,17.268-12.337,19.929
				C307.134,292.596,312.377,279.03,314.947,270.006z"/>
		</g>
	</g>
	<g>
		<g>
			<g>
				<g>
					<path style="fill:#556CB2;" d="M387.017,175.404c11.972-2.36,19.764-13.979,17.404-25.952
						c-2.361-11.972-13.979-19.764-25.952-17.404l-7.116-36.094l-2.352,0.464l-92.382,18.214
						c-11.758,2.318-19.411,13.73-17.093,25.488l17.855,90.561l32.654-6.438c-2.36-11.972,5.431-23.591,17.404-25.952
						c11.972-2.361,23.591,5.431,25.951,17.404l37.664-7.426l2.352-0.464L387.017,175.404z"/>
					<path style="fill:#405896;" d="M275.047,137.061c-0.41-2.08,0.379-3.658,0.885-4.413c0.507-0.756,1.668-2.085,3.747-2.495
						l79.213-15.618l7.116,36.094l15.521-3.06c0.66-0.13,1.323-0.156,1.969-0.079c2.25,0.271,4.792,1.928,5.402,5.022
						c0.438,2.219-0.404,3.903-0.945,4.709c-0.541,0.806-1.779,2.225-3.997,2.662l-15.521,3.06l6.389,32.403l-12.345,2.434
						c-6.051-8.409-15.44-14.159-26.234-15.458c-3.95-0.475-7.943-0.324-11.869,0.45c-14.974,2.953-26.157,14.398-29.53,28.343
						l-5.007,0.987L275.047,137.061z"/>
				</g>
				<g>
					<path style="fill:#CE821D;" d="M94.134,332.02c0,0,49.761,16.911,106.714,4.471c0,0-86.109-33.525-101.66-27.453
						C83.638,315.109,73.141,319.774,94.134,332.02z"/>
					<g>
						<path style="fill:#B25A38;" d="M110.257,311.549c0,0,18.492,71.246,25.782,128.196l25.782-6.942
							c0,0-8.765-74.308-8.376-115.905C153.833,275.301,110.257,311.549,110.257,311.549z"/>
						<path style="fill:#FFF4F3;" d="M132.455,431.248c-0.199-1.574-2.03-6.155-2.03-6.155s-3.233-1.203,0.277-1.799
							c3.509-0.596,32.928-7.65,32.058-5.578c-0.87,2.071,0.57,15.658,0.57,15.658s-24.494,6.574-24.999,6.275
							C137.825,439.35,132.455,431.248,132.455,431.248z"/>
						<path style="fill:#421C11;" d="M133.548,434.141c0,0-1.376,15.314,3.338,24.158c0,0,36.144-0.68,51.858-20.863
							c0,0-10.323-8.853-26.264-6.524l-23.237,5.277C139.244,436.189,134.363,430.279,133.548,434.141z"/>
					</g>
					<g>
						<path style="fill:#C56D45;" d="M118.641,345.933c0,0-20.7,45.999-54.542,63.085c0,0,5.254,17.956,16.425,20.584
							c0,0,54.744-31.941,71.727-73.812C169.234,313.92,118.641,345.933,118.641,345.933z"/>
						<path style="fill:#FFF4F3;" d="M61.16,410.821c0,0,7.135-5.142,12.576-8.962c0,0,1.042-1.736,3.241,1.968
							c2.2,3.704,8.14,17.103,15.183,21.17c0,0,1.602,2.098-1.176,1.983c-2.778-0.116-10.641,9.201-10.641,9.201
							S62.592,421.866,61.16,410.821z"/>
						<path style="fill:#421C11;" d="M50.383,413.038c0,0,0.261-1.004,9.677-3.539c0,0,16.299,19.438,20.283,26.681
							c0,0,1.985,23.334-7.217,26.758L50.383,413.038z"/>
						<path style="fill:#77382D;" d="M69.96,450.064c0,0,7.123,18.954,0,10.866c-1.393-1.582-20.765-26.561-20.765-44.187
							S69.96,450.064,69.96,450.064z"/>
						<path style="fill:#421C11;" d="M60.06,409.499c0,0,2.935-2.606,5.393-2.289c2.458,0.317-1.88,7.828-1.88,7.828L60.06,409.499z
							"/>
					</g>
					<path style="fill:#C56D45;" d="M43.532,266.322c0,0-0.889,1.53-1.941,6.053s-3.45,16.082-5.189,15.378
						c-1.739-0.704-0.655-8.135-0.658-9.221c-0.003-1.086-3.633,0.161-5.673,3.109c-2.04,2.948-3.586,9.026-5.98,10.929
						c-2.394,1.903-1.473-4.191-1.473-4.191s-2.591,1.748-2.592-2.652c0,0-2.176,0.577-2.118-3.01c0,0-2.645,0.08-1.08-3.881
						c1.564-3.961,9.865-15.608,14.603-19.996c4.738-4.388,16.423-17.476,16.423-17.476l5.174,12.243l-0.751,5.272
						C52.275,258.88,44.021,265.22,43.532,266.322z"/>
					<path style="fill:#C56D45;" d="M164.693,132.005c1.662-1.288,14.967,1.166,16.911,15.356c1.944,14.19-2.527,21.382-9.33,20.215
						l-3.499,0.123l0.777,12.901c0,0-7.386,1.944-15.55-3.888l3.443-10.328c0.668-2.005-0.539-4.097-2.581-4.64
						c-2.457-0.653-5.137-2.307-5.137-6.414c0-7.581,10.302-4.471,10.302-4.471S156.918,138.031,164.693,132.005z"/>
					<g>
						<path style="fill:#B25B39;" d="M294.99,159.691c1.88,0.389,4.489-8.112,9.599-4.931
							C309.699,157.942,294.99,159.691,294.99,159.691z"/>
						<path style="fill:#C56D45;" d="M292.983,160.663c0,0,0.932-0.443,2.404-1.166c3.864-1.898,11.45-5.728,15.673-8.547
							c5.831-3.893,4.461-0.394,1.55,3.299c-2.911,3.693-2.911,3.693-2.911,3.693s3.888,0.583,1.361,4.471c0,0,2.916,0.777,0,4.082
							c0,0,2.721,0-1.166,4.082c-3.888,4.082-4.471,3.732-11.857,4.976c-7.386,1.244-14.578,5.326-14.578,5.326l-3.304-14.773
							L292.983,160.663z"/>
					</g>
					<path style="fill:#451F14;" d="M141.298,133.705c-0.053,0.325,0.878-6.753,14.593-11.142
						c13.715-4.389,25.565,0.17,17.884,6.698c0,0,6.752-1.76,6.035,4.444c-0.718,6.204-10.533,3.84-10.533,3.84
						s3.73,5.266-2.085,6.364c-5.815,1.097-5.815,1.097-5.815,1.097s3.072,6.144-0.219,6.803c-3.292,0.658-4.499-1.426-9.326,1.207
						c-4.58,2.498-0.947,8.769,5.894,9.115c0.617,0.031,1.079,0.581,0.992,1.192c-0.371,2.605-1.531,8.588-4.362,8.674
						c-3.621,0.11-2.085-3.73-2.085-3.73s-11.521,0.329-13.715-18.762c0,0-3.84,3.072-9.216,0.11
						c-5.376-2.963-2.633-9.984-2.633-9.984s-3.84,2.853-2.743-0.11c1.097-2.962,2.853-3.292,2.853-3.292s-4.389-2.633,1.097-7.571
						C133.398,123.721,142.614,125.586,141.298,133.705z"/>
					<path style="fill:#451F14;" d="M175.133,147.749c0,1.212-0.562,2.194-1.255,2.194c-0.693,0-1.255-0.982-1.255-2.194
						c0-1.212,0.562-2.194,1.255-2.194C174.571,145.555,175.133,146.537,175.133,147.749z"/>
					<path style="fill:none;stroke:#451F14;stroke-linecap:round;stroke-miterlimit:10;" d="M179.151,157.295
						c0,0-2.743,1.426-6.528-0.439"/>
					<path style="fill:none;stroke:#451F14;stroke-linecap:round;stroke-miterlimit:10;" d="M152.16,156.308
						c0,0,3.401-2.853,6.583,0.548"/>
					<path style="fill:#F36849;" d="M169.553,154.415c0,1.878-1.523,3.401-3.401,3.401c-1.878,0-3.401-1.523-3.401-3.401
						c0-1.878,1.523-3.401,3.401-3.401C168.03,151.014,169.553,152.537,169.553,154.415z"/>
					<path style="fill:#F4B148;" d="M138.554,149.505c0,0,2.983-12.01,2.743-15.8c-0.24-3.79,1.793-3.272,1.423,0
						C142.35,136.977,141.919,146.972,138.554,149.505z"/>
					<path style="fill:#451F14;" d="M174.624,142.975c0.108,0.378-0.484,0.878-1.323,1.118c-0.839,0.24-1.606,0.128-1.714-0.25
						c-0.108-0.378,0.484-0.879,1.323-1.118C173.748,142.485,174.516,142.597,174.624,142.975z"/>
					<path style="fill:#C56D45;" d="M111.026,360.185l8.351-51.883l49.183,9.395c0,0-13.971,43.964-26.226,56.592
						C130.079,386.917,111.026,360.185,111.026,360.185z"/>
					<path style="fill:#FFD950;" d="M147.977,176.323c0,0,1.361-6.22,8.553-3.304c7.192,2.916,13.137-0.194,16.093,3.304
						c2.956,3.499,2.178,3.538,8.593,4.587c6.415,1.05,92.718-17.317,99.91-18.677c0,0,1.23,12.729,3.757,22.254
						c0,0-61.682,34.599-99.974,39.459c0,0,15.161,68.421,15.939,112.545c0,0-39.848,4.471-75.613-8.747
						c-35.766-13.218-55.398-10.496-31.1,4.276c0,0-17.883-3.499-15.161-15.356c2.721-11.857,44.792-93.69,44.792-93.69
						s-44.792,11.08-79.974,50.344c0,0-5.054,0.972-20.604-6.609C23.186,266.709,71.392,175.934,147.977,176.323z"/>
					<path style="fill:#E29B3D;" d="M123.765,222.974l10.8-21.382c0,0-54.426,15.55-90.774,71.725
						C43.79,273.318,82.366,235.414,123.765,222.974z"/>
					<path style="fill:#E29B3D;" d="M184.909,223.946l-2.847-16.911c0,0,21.076,8.035,78.342-10.367
						C260.403,196.668,222.423,219.475,184.909,223.946z"/>
					<path style="fill:#E29B3D;" d="M147.977,176.323c0,0,9.913,3.965,21.576,4.276c0,0-10.496,1.944-29.545-4.276H147.977z"/>
				</g>
			</g>
		</g>
		<g>
			<path style="fill:#FFFFFF;" d="M317.371,139.263c0.708,1.293-0.121-24.134-5.211-22.852
				C307.071,117.693,312.865,131.034,317.371,139.263z"/>
			<path style="fill:#FFFFFF;" d="M325.766,139.242c-0.029,1.474,11.903-20.995,6.85-22.415
				C327.563,115.406,325.951,129.861,325.766,139.242z"/>
			<path style="fill:#FFFFFF;" d="M332.136,143.723c-1.141,0.934,23.699-4.56,21.503-9.326S339.395,137.779,332.136,143.723z"/>
			<path style="fill:#FFFFFF;" d="M331.823,150.343c-1.434-0.34,18,16.077,20.457,11.439
				C354.739,157.144,340.952,152.509,331.823,150.343z"/>
			<path style="fill:#FFFFFF;" d="M325.476,154.728c-0.922-1.151,4.301,23.748,9.091,21.604S331.34,162.052,325.476,154.728z"/>
		</g>
	</g>
	<g>
		<g>
			<ellipse style="fill:#83CACC;" cx="471.794" cy="466.141" rx="135.91" ry="17.158"/>
			<g>
				<g>
					<g>
						<path style="fill:#FFF4F3;" d="M486.843,440.912c0,0,1.202,13.832-0.971,15.166c-2.173,1.334-58.174,0.915-58.174,0.915
							L486.843,440.912z"/>
						<path style="opacity:0.38;fill:#556CB2;" d="M485.872,456.078c0.797-0.489,1.139-2.662,1.254-5.214c0,0-0.001,0-0.001,0
							c-10.718,1.574-42.758,2.269-43.175,2.242l0.255-0.6l-16.506,4.488C427.698,456.993,483.699,457.412,485.872,456.078z"/>
					</g>
					<path style="fill:#35529B;" d="M557.407,400.145c-1.739-4.071-32.13-42.975-64.656-58.808
						c-32.526-15.833-42.564,41.076-41.719,67.358C451.876,434.978,557.407,400.145,557.407,400.145z"/>
					<g>
						<path style="fill:#556CB2;" d="M367.895,458.217c-4.867-14.247-14.612-37.68-24.674-37.438c0,0-2.473,0.628-0.5,7.806
							c1.687,6.135,16.672,38.559,24.876,41.519l0,0C371.878,470.71,368.625,460.392,367.895,458.217z"/>
						<path style="fill:#556CB2;" d="M545.597,395.84c0,0-48.11-1.202-75.278,6.429c-27.168,7.63-70.329,28.231-86.395,33.106
							c-4.811,1.46-7.068,2.881-7.885,4.158l6.165,0.165c0,0,15.543,1.148,16.794,20.66c-0.437,1.381-1.254,2.413-2.633,2.807
							c-0.001,0-0.002,0.001-0.003,0.001c0,0,1.212,3.408,4.226,2.229l64.599-15.055h0c17.744-3.682,30.697-7.03,30.697-7.03
							S566,466.272,579.239,465.45c13.238-0.823,30.127-38.961,30.127-38.961C579.706,391.711,545.597,395.84,545.597,395.84z"/>
						<path style="fill:#FFF4F3;" d="M382.203,439.698l-6.165-0.165l-1.553-0.042c-8.238-15.058-17.213-19.051-23.179-20.405
							c-5.966-1.354-8.087,1.693-8.087,1.693c10.062-0.242,19.807,23.19,24.674,37.438c0.731,2.175,3.983,12.493-0.298,11.887l0,0
							c0.001,0.001,3.009,1.992,13.236-2.688c0.002-0.001,0.003-0.002,0.005-0.002c4.693-1.159,10.395-2.755,15.527-4.248
							c1.379-0.394,2.196-1.426,2.633-2.807C397.746,440.847,382.203,439.698,382.203,439.698z"/>
						<path style="opacity:0.38;fill:#556CB2;" d="M359.861,432.026c2.576-7.435-3.214-11.132-3.216-11.133
							c-1.945-0.894-3.749-1.446-5.338-1.806c-5.966-1.354-8.087,1.693-8.087,1.693c10.062-0.242,19.807,23.19,24.674,37.438
							c0.731,2.175,3.983,12.493-0.298,11.887l0,0c0.001,0,0.989,0.645,3.735,0.331c0.012-0.028,0.027-0.053,0.039-0.082
							C376.755,457.505,359.861,432.026,359.861,432.026z"/>
					</g>
					<path style="fill:#556CB2;" d="M379.91,445.206c-0.063,0.988-0.915,1.737-1.902,1.674c-0.988-0.063-1.737-0.915-1.674-1.902
						c0.063-0.988,0.915-1.737,1.903-1.674C379.224,443.366,379.973,444.218,379.91,445.206z"/>
					<path style="fill:#556CB2;" d="M373.2,441.776c-0.063,0.988-0.915,1.737-1.902,1.674c-0.988-0.063-1.737-0.915-1.674-1.903
						c0.063-0.988,0.915-1.737,1.903-1.674C372.514,439.936,373.263,440.788,373.2,441.776z"/>
					<path style="fill:#556CB2;" d="M386.588,445.633c-0.063,0.988-0.915,1.737-1.903,1.674c-0.987-0.063-1.737-0.915-1.674-1.903
						c0.063-0.988,0.915-1.737,1.903-1.674C385.902,443.794,386.652,444.646,386.588,445.633z"/>
				</g>
				<path style="fill:#D34F39;" d="M570.918,314.813c-3.297-0.882-29.578,0.995-55.177-28.752
					c-25.598-29.746-35.809-43.145-35.809-43.145l-11.068,15.726c0,0,23.849,51.836,46.808,70.41
					C538.632,347.628,570.918,314.813,570.918,314.813z"/>
				<g>
					<path style="fill:#B3B200;" d="M495.868,182.897l-30.11,11.798c4.452,11.362-1.15,24.181-12.512,28.633
						c-11.362,4.452-24.181-1.15-28.633-12.512l-36.621,14.349l13.952,35.609c-11.362,4.452-16.963,17.271-12.512,28.633
						c4.452,11.362,17.271,16.963,28.633,12.512l11.517,29.395l87.671-34.351c11.159-4.372,16.66-16.962,12.288-28.121
						L495.868,182.897z"/>
					<path style="fill:#999502;" d="M427.023,281.418l-14.73,5.771c-0.501,0.197-1.017,0.329-1.534,0.393
						c-2.836,0.35-5.55-1.273-6.597-3.946c-1.262-3.222,0.332-6.871,3.553-8.133l14.729-5.772l-13.952-35.609l10.374-4.065
						c8.037,7.751,19.32,11.77,30.954,10.333c3.14-0.389,6.234-1.173,9.196-2.334c14.213-5.568,23.182-18.818,24.021-33.142
						l3.872-1.517l27.903,71.214c1.183,3.019-0.311,6.438-3.33,7.62l-72.941,28.58L427.023,281.418z"/>
				</g>
				<path style="fill:#9E4B23;" d="M576.217,297.798l0.143,3.644c0,0,7.513-0.389,9.122-4.562
					C587.09,292.707,576.217,297.798,576.217,297.798z"/>
				<path style="fill:#FEB28E;" d="M577.072,268.771c0,0-9.301-5.482-18.609,4.827s-13.781,21.429-6.796,25.887
					s6.985,4.458,6.985,4.458l6.074,18.689l18.427-13.736l-6.793-7.454l-0.143-3.644c0,0,10.756,2.318,13.113-3.172
					c2.357-5.49-5.191-8.981-11.356-8.624C577.975,286.003,588.606,278.532,577.072,268.771z"/>
				<path style="fill:#FEB28E;" d="M475.981,282.48c-1.07-0.796-2.027-1.725-2.843-2.781c-1.28-1.658-3.662-4.63-5.268-9.942
					c-2.22-7.342-4.189-9.262-4.27-4.883c-0.081,4.378,0.66,6.814-1.242,5.398c-1.902-1.416-6.813-5.615-9.124-6.859
					c-2.311-1.244-4.093,0.137,0.13,4.192c4.223,4.056,0.987,3.249-1.919,1.968c-2.907-1.281-7.97-3.102-6.548-0.419l2.229,2.535
					c0,0-1.759-0.511-2.659-0.469c-0.9,0.042,0.701,3.033,3.365,4.997c2.664,1.964,5.084,4.609,2.437,3.942
					c-2.647-0.668-5.661-1.827-4.37-0.215s8.356,4.854,10.655,6.296c2.299,1.442,6.165,3.284,11.452,9.4
					c5.287,6.116,13.861-4.891,13.71-7.192C481.616,286.914,478.228,284.152,475.981,282.48z"/>
				<path style="fill:#9E4B23;" d="M589.352,290.774c0,0,4.56-3.935,1.248-10.953c0,0,3.868-7.036,2.025-11.931
					c-1.843-4.894-4.101,0.522-4.101,0.522s-2.531-14.559-10.756-16.638c-8.225-2.079-8.187,6.645-8.187,6.645
					s-8.728-3.548-10.106,3.051c-1.378,6.599,1.357,9.833,1.357,9.833s6.096-5.007,13.114-2.732
					c7.019,2.275,7.726,13.912,4.028,17.432C574.277,289.522,586.359,285.565,589.352,290.774z"/>
				<path style="fill:#F26748;" d="M581.957,304.787c0,0-9.858,2.052-23.753,9.548c-13.896,7.495-41.86-1.003-41.86-1.003
					s-26.5-22.744-40.754-34.933c0,0-1.849,13.663-12.623,14.531c0,0,15.979,23.04,39.706,45.353
					c23.726,22.313,41.096,24.431,41.096,24.431l-4.464,15.24c0,0,9.109,16.396,11.388,17.727
					c2.92,1.705,38.208,30.628,58.408,34.94C609.102,430.621,630.437,340.431,581.957,304.787z"/>
				<path style="fill:#451F14;" d="M561.837,279.269c-0.698,1.048-0.765,2.229-0.15,2.638c0.615,0.409,1.679-0.108,2.376-1.155
					c0.698-1.048,0.765-2.229,0.15-2.638C563.598,277.704,562.534,278.221,561.837,279.269z"/>
				<path style="fill:none;stroke:#451F14;stroke-linecap:round;stroke-miterlimit:10;" d="M551.849,286.804
					c0,0,2.212,2.776,7.052,2.585"/>
				<path style="fill:none;stroke:#451F14;stroke-linecap:round;stroke-miterlimit:10;" d="M586.417,293.056
					c0,0-3.687-3.518-7.582,0.145"/>
				<path style="fill:#F36849;" d="M563.422,288.383c-0.876,1.97,0.011,4.278,1.981,5.154c1.97,0.876,4.278-0.011,5.154-1.981
					c0.876-1.971-0.011-4.278-1.981-5.154C566.606,285.525,564.298,286.413,563.422,288.383z"/>
				<path style="fill:#9E4B23;" d="M569.3,277.13c-0.576,0.547-1.837,0.155-2.818-0.877c-0.981-1.031-1.309-2.311-0.734-2.859
					c0.576-0.547,1.837-0.155,2.818,0.877C569.547,275.303,569.876,276.583,569.3,277.13z"/>
				<g>
					<path style="fill:#D34F39;" d="M578.793,354.223c-14.422,10.48-35.024,8.491-35.024,8.491l-4.464,15.24
						c9.014,17.741,11.388,17.727,11.388,17.727c19.354,1.832,34.451,10.335,36.059,11.268
						C561.221,392.572,578.793,354.223,578.793,354.223z"/>
					<path style="fill:#D34F39;" d="M586.753,406.949c0.051,0.029,0.099,0.059,0.15,0.088
						C586.903,407.036,586.847,407.003,586.753,406.949z"/>
				</g>
			</g>
		</g>
		<g>
			<path style="fill:#FFFFFF;" d="M436.52,263.276c0.941-1.135-22.389,9.01-19.321,13.269
				C420.266,280.803,430.531,270.5,436.52,263.276z"/>
			<path style="fill:#FFFFFF;" d="M433.404,255.481c1.381-0.516-23.904-3.324-23.362,1.897S424.616,258.767,433.404,255.481z"/>
			<path style="fill:#FFFFFF;" d="M435.221,247.908c1.289,0.716-12.976-20.349-16.597-16.55
				C415.003,235.157,427.02,243.351,435.221,247.908z"/>
			<path style="fill:#FFFFFF;" d="M441.49,245.757c0.212,1.459,8.308-22.659,3.091-23.234
				C439.365,221.949,440.139,236.473,441.49,245.757z"/>
			<path style="fill:#FFFFFF;" d="M447.907,250.041c-0.73,1.281,20.489-12.753,16.73-16.415
				C460.878,229.963,452.553,241.89,447.907,250.041z"/>
		</g>
	</g>
</g>
</svg>
